<mxfile host="app.diagrams.net" modified="2022-03-07T01:06:22.984Z" agent="5.0 (Macintosh; Intel Mac OS X 10_15_7) AppleWebKit/537.36 (KHTML, like Gecko) Chrome/98.0.4758.102 Safari/537.36 OPR/84.0.4316.21" etag="tSKWSogEB1HNlZ1SC1jh" version="16.6.6" type="github">
  <diagram id="XVf6cMPkmsaE1dFnUmuw" name="Page-1">
    <mxGraphModel dx="666" dy="1475" grid="1" gridSize="10" guides="1" tooltips="1" connect="1" arrows="1" fold="1" page="1" pageScale="1" pageWidth="1100" pageHeight="850" math="0" shadow="0">
      <root>
        <mxCell id="0" />
        <mxCell id="1" parent="0" />
        <mxCell id="RwjBt87DDW_TiBrwf7uw-2" value="&lt;span&gt;Customer&lt;/span&gt;" style="html=1;fillColor=#d5e8d4;strokeColor=#82b366;fontStyle=1;fontColor=#4D4D4D;" parent="1" vertex="1">
          <mxGeometry x="80" y="-40" width="110" height="50" as="geometry" />
        </mxCell>
        <mxCell id="RwjBt87DDW_TiBrwf7uw-3" value="&lt;u&gt;customerID&lt;/u&gt;" style="html=1;fontStyle=1" parent="1" vertex="1">
          <mxGeometry x="190.5" y="-40" width="110" height="50" as="geometry" />
        </mxCell>
        <mxCell id="RwjBt87DDW_TiBrwf7uw-5" value="&lt;font style=&quot;font-size: 11px&quot;&gt;fName&lt;/font&gt;" style="html=1;" parent="1" vertex="1">
          <mxGeometry x="300.5" y="-40" width="110" height="50" as="geometry" />
        </mxCell>
        <mxCell id="RwjBt87DDW_TiBrwf7uw-6" value="&lt;font style=&quot;font-size: 10px&quot;&gt;mName&lt;/font&gt;" style="html=1;" parent="1" vertex="1">
          <mxGeometry x="410.5" y="-40" width="110" height="50" as="geometry" />
        </mxCell>
        <mxCell id="RwjBt87DDW_TiBrwf7uw-7" value="lName" style="html=1;fontSize=11;" parent="1" vertex="1">
          <mxGeometry x="520.5" y="-40" width="110" height="50" as="geometry" />
        </mxCell>
        <mxCell id="RwjBt87DDW_TiBrwf7uw-8" value="phone" style="html=1;fontSize=11;" parent="1" vertex="1">
          <mxGeometry x="630.5" y="-40" width="110" height="50" as="geometry" />
        </mxCell>
        <mxCell id="RwjBt87DDW_TiBrwf7uw-9" value="email" style="html=1;fontSize=11;" parent="1" vertex="1">
          <mxGeometry x="740.5" y="-40" width="110" height="50" as="geometry" />
        </mxCell>
        <mxCell id="RwjBt87DDW_TiBrwf7uw-10" value="street" style="html=1;fontSize=11;" parent="1" vertex="1">
          <mxGeometry x="850.5" y="-40" width="110" height="50" as="geometry" />
        </mxCell>
        <mxCell id="RwjBt87DDW_TiBrwf7uw-12" value="city" style="html=1;fontSize=11;" parent="1" vertex="1">
          <mxGeometry x="960.5" y="-40" width="110" height="50" as="geometry" />
        </mxCell>
        <mxCell id="RwjBt87DDW_TiBrwf7uw-14" value="state" style="html=1;fontSize=11;" parent="1" vertex="1">
          <mxGeometry x="1070.5" y="-40" width="110" height="50" as="geometry" />
        </mxCell>
        <mxCell id="RwjBt87DDW_TiBrwf7uw-15" value="zip" style="html=1;fontSize=11;" parent="1" vertex="1">
          <mxGeometry x="1180.5" y="-40" width="110" height="50" as="geometry" />
        </mxCell>
        <mxCell id="RwjBt87DDW_TiBrwf7uw-20" value="&lt;b&gt;Payment&lt;/b&gt;" style="html=1;fontSize=11;labelBackgroundColor=none;fillColor=#d5e8d4;strokeColor=#82b366;fontColor=#333333;" parent="1" vertex="1">
          <mxGeometry x="80" y="120" width="110" height="50" as="geometry" />
        </mxCell>
        <mxCell id="RwjBt87DDW_TiBrwf7uw-21" value="&lt;u&gt;paymentID&lt;/u&gt;" style="html=1;fontSize=11;fontStyle=1" parent="1" vertex="1">
          <mxGeometry x="190" y="120" width="110" height="50" as="geometry" />
        </mxCell>
        <mxCell id="RwjBt87DDW_TiBrwf7uw-22" value="paymentType" style="html=1;fontSize=11;" parent="1" vertex="1">
          <mxGeometry x="299" y="120" width="110" height="50" as="geometry" />
        </mxCell>
        <mxCell id="RwjBt87DDW_TiBrwf7uw-23" value="paymentDigits" style="html=1;fontSize=11;" parent="1" vertex="1">
          <mxGeometry x="409" y="120" width="110" height="50" as="geometry" />
        </mxCell>
        <mxCell id="RwjBt87DDW_TiBrwf7uw-24" value="paymentCompany" style="html=1;fontSize=11;" parent="1" vertex="1">
          <mxGeometry x="519" y="120" width="110" height="50" as="geometry" />
        </mxCell>
        <mxCell id="RwjBt87DDW_TiBrwf7uw-25" value="&lt;b&gt;Orders&lt;/b&gt;" style="html=1;fontSize=11;fillColor=#d5e8d4;strokeColor=#82b366;fontColor=#4D4D4D;" parent="1" vertex="1">
          <mxGeometry x="80.5" y="240" width="110" height="50" as="geometry" />
        </mxCell>
        <mxCell id="RwjBt87DDW_TiBrwf7uw-26" value="&lt;u&gt;orderID&lt;/u&gt;" style="html=1;fontSize=11;fontStyle=1" parent="1" vertex="1">
          <mxGeometry x="190.5" y="240" width="110" height="50" as="geometry" />
        </mxCell>
        <mxCell id="D54AwepfrR_1NZmLBoPf-5" style="edgeStyle=orthogonalEdgeStyle;rounded=0;orthogonalLoop=1;jettySize=auto;html=1;exitX=0.5;exitY=0;exitDx=0;exitDy=0;entryX=0.75;entryY=1;entryDx=0;entryDy=0;" edge="1" parent="1" source="RwjBt87DDW_TiBrwf7uw-27" target="RwjBt87DDW_TiBrwf7uw-3">
          <mxGeometry relative="1" as="geometry">
            <mxPoint x="270" y="40" as="targetPoint" />
            <Array as="points">
              <mxPoint x="683" y="70" />
              <mxPoint x="273" y="70" />
            </Array>
          </mxGeometry>
        </mxCell>
        <mxCell id="RwjBt87DDW_TiBrwf7uw-27" value="customerID" style="html=1;fontSize=11;" parent="1" vertex="1">
          <mxGeometry x="627.5" y="240" width="110" height="50" as="geometry" />
        </mxCell>
        <mxCell id="RwjBt87DDW_TiBrwf7uw-28" value="orderTimestamp" style="html=1;fontSize=11;" parent="1" vertex="1">
          <mxGeometry x="410.5" y="240" width="110" height="50" as="geometry" />
        </mxCell>
        <mxCell id="RwjBt87DDW_TiBrwf7uw-31" value="&lt;b&gt;Shipment&lt;/b&gt;" style="html=1;fontSize=11;fillColor=#d5e8d4;strokeColor=#82b366;" parent="1" vertex="1">
          <mxGeometry x="80.5" y="380" width="110" height="50" as="geometry" />
        </mxCell>
        <mxCell id="RwjBt87DDW_TiBrwf7uw-32" value="&lt;u&gt;trackingNo&lt;/u&gt;" style="html=1;fontSize=11;fontStyle=1" parent="1" vertex="1">
          <mxGeometry x="190.5" y="380" width="110" height="50" as="geometry" />
        </mxCell>
        <mxCell id="D54AwepfrR_1NZmLBoPf-6" style="edgeStyle=orthogonalEdgeStyle;rounded=0;orthogonalLoop=1;jettySize=auto;html=1;exitX=0.5;exitY=0;exitDx=0;exitDy=0;entryX=0.75;entryY=1;entryDx=0;entryDy=0;" edge="1" parent="1" source="RwjBt87DDW_TiBrwf7uw-33" target="RwjBt87DDW_TiBrwf7uw-26">
          <mxGeometry relative="1" as="geometry">
            <Array as="points">
              <mxPoint x="356" y="310" />
              <mxPoint x="273" y="310" />
            </Array>
          </mxGeometry>
        </mxCell>
        <mxCell id="RwjBt87DDW_TiBrwf7uw-33" value="&lt;u&gt;orderID&lt;/u&gt;" style="html=1;fontSize=11;fontStyle=1" parent="1" vertex="1">
          <mxGeometry x="300.5" y="380" width="110" height="50" as="geometry" />
        </mxCell>
        <mxCell id="RwjBt87DDW_TiBrwf7uw-34" value="street" style="html=1;fontSize=11;" parent="1" vertex="1">
          <mxGeometry x="410.5" y="380" width="110" height="50" as="geometry" />
        </mxCell>
        <mxCell id="RwjBt87DDW_TiBrwf7uw-35" value="city" style="html=1;fontSize=11;" parent="1" vertex="1">
          <mxGeometry x="520.5" y="380" width="110" height="50" as="geometry" />
        </mxCell>
        <mxCell id="RwjBt87DDW_TiBrwf7uw-36" value="shippingCost" style="html=1;fontSize=11;" parent="1" vertex="1">
          <mxGeometry x="300.5" y="240" width="110" height="50" as="geometry" />
        </mxCell>
        <mxCell id="RwjBt87DDW_TiBrwf7uw-39" value="zip" style="html=1;fontSize=11;" parent="1" vertex="1">
          <mxGeometry x="740.5" y="380" width="110" height="50" as="geometry" />
        </mxCell>
        <mxCell id="RwjBt87DDW_TiBrwf7uw-40" value="state" style="html=1;fontSize=11;" parent="1" vertex="1">
          <mxGeometry x="630.5" y="380" width="110" height="50" as="geometry" />
        </mxCell>
        <mxCell id="RwjBt87DDW_TiBrwf7uw-47" value="&lt;b&gt;LineItem&lt;/b&gt;" style="html=1;fontSize=11;fillColor=#d5e8d4;strokeColor=#82b366;" parent="1" vertex="1">
          <mxGeometry x="79" y="900" width="110" height="50" as="geometry" />
        </mxCell>
        <mxCell id="RwjBt87DDW_TiBrwf7uw-48" value="&lt;u&gt;line#&lt;/u&gt;" style="html=1;fontSize=11;fontStyle=1" parent="1" vertex="1">
          <mxGeometry x="189" y="900" width="110" height="50" as="geometry" />
        </mxCell>
        <mxCell id="D54AwepfrR_1NZmLBoPf-17" style="edgeStyle=orthogonalEdgeStyle;rounded=0;orthogonalLoop=1;jettySize=auto;html=1;exitX=0.5;exitY=0;exitDx=0;exitDy=0;entryX=0.25;entryY=1;entryDx=0;entryDy=0;" edge="1" parent="1" source="RwjBt87DDW_TiBrwf7uw-49" target="RwjBt87DDW_TiBrwf7uw-26">
          <mxGeometry relative="1" as="geometry">
            <mxPoint x="40" y="720" as="targetPoint" />
            <Array as="points">
              <mxPoint x="354" y="880" />
              <mxPoint x="40" y="880" />
              <mxPoint x="40" y="310" />
              <mxPoint x="218" y="310" />
            </Array>
          </mxGeometry>
        </mxCell>
        <mxCell id="RwjBt87DDW_TiBrwf7uw-49" value="&lt;u&gt;orderID&lt;/u&gt;" style="html=1;fontSize=11;fontStyle=1" parent="1" vertex="1">
          <mxGeometry x="299" y="900" width="110" height="50" as="geometry" />
        </mxCell>
        <mxCell id="D54AwepfrR_1NZmLBoPf-15" style="edgeStyle=orthogonalEdgeStyle;rounded=0;orthogonalLoop=1;jettySize=auto;html=1;exitX=0.683;exitY=-0.04;exitDx=0;exitDy=0;entryX=0.354;entryY=1.053;entryDx=0;entryDy=0;entryPerimeter=0;exitPerimeter=0;" edge="1" parent="1" source="RwjBt87DDW_TiBrwf7uw-51">
          <mxGeometry relative="1" as="geometry">
            <mxPoint x="703" y="898" as="sourcePoint" />
            <mxPoint x="249.93999999999994" y="600.6499999999999" as="targetPoint" />
            <Array as="points">
              <mxPoint x="702" y="670" />
              <mxPoint x="250" y="670" />
            </Array>
          </mxGeometry>
        </mxCell>
        <mxCell id="RwjBt87DDW_TiBrwf7uw-51" value="productID" style="html=1;fontSize=11;" parent="1" vertex="1">
          <mxGeometry x="627" y="900" width="110" height="50" as="geometry" />
        </mxCell>
        <mxCell id="RwjBt87DDW_TiBrwf7uw-52" value="discount" style="html=1;fontSize=11;" parent="1" vertex="1">
          <mxGeometry x="518" y="900" width="110" height="50" as="geometry" />
        </mxCell>
        <mxCell id="RwjBt87DDW_TiBrwf7uw-53" value="quantity" style="html=1;fontSize=11;" parent="1" vertex="1">
          <mxGeometry x="408" y="900" width="110" height="50" as="geometry" />
        </mxCell>
        <mxCell id="RwjBt87DDW_TiBrwf7uw-58" value="&lt;b&gt;Returns&lt;/b&gt;" style="html=1;fontSize=11;fillColor=#d5e8d4;strokeColor=#82b366;" parent="1" vertex="1">
          <mxGeometry x="79" y="750" width="110" height="50" as="geometry" />
        </mxCell>
        <mxCell id="D54AwepfrR_1NZmLBoPf-14" style="edgeStyle=orthogonalEdgeStyle;rounded=0;orthogonalLoop=1;jettySize=auto;html=1;exitX=0.5;exitY=0;exitDx=0;exitDy=0;entryX=0.5;entryY=1;entryDx=0;entryDy=0;" edge="1" parent="1">
          <mxGeometry relative="1" as="geometry">
            <mxPoint x="239" y="750" as="sourcePoint" />
            <mxPoint x="240.5" y="290" as="targetPoint" />
            <Array as="points">
              <mxPoint x="239" y="720" />
              <mxPoint x="60" y="720" />
              <mxPoint x="60" y="320" />
              <mxPoint x="241" y="320" />
            </Array>
          </mxGeometry>
        </mxCell>
        <mxCell id="RwjBt87DDW_TiBrwf7uw-59" value="&lt;u&gt;orderID&lt;/u&gt;" style="html=1;fontSize=11;fontStyle=1" parent="1" vertex="1">
          <mxGeometry x="189" y="750" width="110" height="50" as="geometry" />
        </mxCell>
        <mxCell id="D54AwepfrR_1NZmLBoPf-16" style="edgeStyle=orthogonalEdgeStyle;rounded=0;orthogonalLoop=1;jettySize=auto;html=1;entryX=0.381;entryY=1.08;entryDx=0;entryDy=0;entryPerimeter=0;exitX=0.5;exitY=0;exitDx=0;exitDy=0;" edge="1" parent="1">
          <mxGeometry relative="1" as="geometry">
            <mxPoint x="363" y="750" as="sourcePoint" />
            <mxPoint x="239.90999999999997" y="601" as="targetPoint" />
            <Array as="points">
              <mxPoint x="360" y="750" />
              <mxPoint x="360" y="680" />
              <mxPoint x="240" y="680" />
            </Array>
          </mxGeometry>
        </mxCell>
        <mxCell id="RwjBt87DDW_TiBrwf7uw-60" value="&lt;u&gt;productID&lt;/u&gt;" style="html=1;fontSize=11;fontStyle=1" parent="1" vertex="1">
          <mxGeometry x="299" y="750" width="110" height="50" as="geometry" />
        </mxCell>
        <mxCell id="RwjBt87DDW_TiBrwf7uw-61" value="returnDate" style="html=1;fontSize=11;" parent="1" vertex="1">
          <mxGeometry x="409" y="750" width="110" height="50" as="geometry" />
        </mxCell>
        <mxCell id="RwjBt87DDW_TiBrwf7uw-94" value="&lt;b&gt;Shoes&lt;/b&gt;" style="html=1;fontSize=11;fillColor=#d5e8d4;strokeColor=#82b366;" parent="1" vertex="1">
          <mxGeometry x="80" y="1020.3499999999999" width="110" height="50" as="geometry" />
        </mxCell>
        <mxCell id="8wOWExM0Wy5B-CElI9bP-14" style="edgeStyle=orthogonalEdgeStyle;rounded=0;orthogonalLoop=1;jettySize=auto;html=1;exitX=0.5;exitY=1;exitDx=0;exitDy=0;entryX=0.595;entryY=1.037;entryDx=0;entryDy=0;entryPerimeter=0;" parent="1" edge="1">
          <mxGeometry relative="1" as="geometry">
            <mxPoint x="259.45" y="600.8500000000001" as="targetPoint" />
            <Array as="points">
              <mxPoint x="259" y="1070" />
              <mxPoint x="259" y="1090" />
              <mxPoint x="790" y="1090" />
              <mxPoint x="790" y="659" />
              <mxPoint x="260" y="659" />
            </Array>
            <mxPoint x="260" y="1070.35" as="sourcePoint" />
          </mxGeometry>
        </mxCell>
        <mxCell id="RwjBt87DDW_TiBrwf7uw-95" value="&lt;u&gt;shoesID&lt;/u&gt;" style="html=1;fontSize=11;fontStyle=1" parent="1" vertex="1">
          <mxGeometry x="190" y="1020.3499999999999" width="110" height="50" as="geometry" />
        </mxCell>
        <mxCell id="RwjBt87DDW_TiBrwf7uw-96" value="usSize" style="html=1;fontSize=11;" parent="1" vertex="1">
          <mxGeometry x="300" y="1020.3499999999999" width="110" height="50" as="geometry" />
        </mxCell>
        <mxCell id="RwjBt87DDW_TiBrwf7uw-97" value="euSize" style="html=1;fontSize=11;" parent="1" vertex="1">
          <mxGeometry x="410" y="1020.3499999999999" width="110" height="50" as="geometry" />
        </mxCell>
        <mxCell id="RwjBt87DDW_TiBrwf7uw-98" value="&lt;b&gt;Top&lt;/b&gt;" style="html=1;fontSize=11;fillColor=#d5e8d4;strokeColor=#82b366;" parent="1" vertex="1">
          <mxGeometry x="79" y="1148.35" width="110" height="50" as="geometry" />
        </mxCell>
        <mxCell id="8wOWExM0Wy5B-CElI9bP-15" style="edgeStyle=orthogonalEdgeStyle;rounded=0;orthogonalLoop=1;jettySize=auto;html=1;exitX=0.5;exitY=1;exitDx=0;exitDy=0;entryX=0.708;entryY=1.025;entryDx=0;entryDy=0;entryPerimeter=0;" parent="1" edge="1">
          <mxGeometry relative="1" as="geometry">
            <Array as="points">
              <mxPoint x="241" y="1220" />
              <mxPoint x="800" y="1220" />
              <mxPoint x="800" y="650" />
              <mxPoint x="270" y="650" />
            </Array>
            <mxPoint x="241" y="1199.35" as="sourcePoint" />
            <mxPoint x="269.87999999999994" y="601.25" as="targetPoint" />
          </mxGeometry>
        </mxCell>
        <mxCell id="RwjBt87DDW_TiBrwf7uw-99" value="&lt;u&gt;topID&lt;/u&gt;" style="html=1;fontSize=11;fontStyle=1" parent="1" vertex="1">
          <mxGeometry x="189" y="1148.35" width="110" height="50" as="geometry" />
        </mxCell>
        <mxCell id="RwjBt87DDW_TiBrwf7uw-100" value="topFit" style="html=1;fontSize=11;" parent="1" vertex="1">
          <mxGeometry x="299" y="1148.35" width="110" height="50" as="geometry" />
        </mxCell>
        <mxCell id="RwjBt87DDW_TiBrwf7uw-101" value="topSize" style="html=1;fontSize=11;" parent="1" vertex="1">
          <mxGeometry x="409" y="1148.35" width="110" height="50" as="geometry" />
        </mxCell>
        <mxCell id="RwjBt87DDW_TiBrwf7uw-103" value="topType" style="html=1;fontSize=11;" parent="1" vertex="1">
          <mxGeometry x="519" y="1148.35" width="110" height="50" as="geometry" />
        </mxCell>
        <mxCell id="RwjBt87DDW_TiBrwf7uw-104" value="&lt;b&gt;Bottom&lt;/b&gt;" style="html=1;fontSize=11;fillColor=#d5e8d4;strokeColor=#82b366;" parent="1" vertex="1">
          <mxGeometry x="79" y="1281.35" width="110" height="50" as="geometry" />
        </mxCell>
        <mxCell id="8wOWExM0Wy5B-CElI9bP-17" style="edgeStyle=orthogonalEdgeStyle;rounded=0;orthogonalLoop=1;jettySize=auto;html=1;exitX=0.5;exitY=1;exitDx=0;exitDy=0;entryX=0.816;entryY=1.023;entryDx=0;entryDy=0;entryPerimeter=0;" parent="1" target="RwjBt87DDW_TiBrwf7uw-112" edge="1">
          <mxGeometry relative="1" as="geometry">
            <Array as="points">
              <mxPoint x="243" y="1330" />
              <mxPoint x="244" y="1330" />
              <mxPoint x="244" y="1350" />
              <mxPoint x="810" y="1350" />
              <mxPoint x="810" y="640" />
              <mxPoint x="280" y="640" />
            </Array>
            <mxPoint x="243" y="1332.35" as="sourcePoint" />
            <mxPoint x="278.97999999999996" y="402.35000000000025" as="targetPoint" />
          </mxGeometry>
        </mxCell>
        <mxCell id="RwjBt87DDW_TiBrwf7uw-105" value="&lt;u&gt;bottomID&lt;/u&gt;" style="html=1;fontSize=11;fontStyle=1" parent="1" vertex="1">
          <mxGeometry x="189" y="1281.35" width="110" height="50" as="geometry" />
        </mxCell>
        <mxCell id="RwjBt87DDW_TiBrwf7uw-106" value="bottomFit" style="html=1;fontSize=11;" parent="1" vertex="1">
          <mxGeometry x="299" y="1281.35" width="110" height="50" as="geometry" />
        </mxCell>
        <mxCell id="RwjBt87DDW_TiBrwf7uw-107" value="bottomeSize" style="html=1;fontSize=11;" parent="1" vertex="1">
          <mxGeometry x="409" y="1281.35" width="110" height="50" as="geometry" />
        </mxCell>
        <mxCell id="RwjBt87DDW_TiBrwf7uw-108" value="bottomType" style="html=1;fontSize=11;" parent="1" vertex="1">
          <mxGeometry x="519" y="1281.35" width="110" height="50" as="geometry" />
        </mxCell>
        <mxCell id="RwjBt87DDW_TiBrwf7uw-111" value="&lt;b&gt;Product&lt;/b&gt;" style="html=1;fontSize=11;fillColor=#d5e8d4;strokeColor=#82b366;" parent="1" vertex="1">
          <mxGeometry x="80" y="550" width="110" height="50" as="geometry" />
        </mxCell>
        <mxCell id="RwjBt87DDW_TiBrwf7uw-112" value="&lt;u&gt;productID&lt;/u&gt;" style="html=1;fontSize=11;fontStyle=1" parent="1" vertex="1">
          <mxGeometry x="190" y="550" width="110" height="50" as="geometry" />
        </mxCell>
        <mxCell id="RwjBt87DDW_TiBrwf7uw-113" value="productName" style="html=1;fontSize=11;" parent="1" vertex="1">
          <mxGeometry x="300" y="550" width="110" height="50" as="geometry" />
        </mxCell>
        <mxCell id="RwjBt87DDW_TiBrwf7uw-114" value="productDescription" style="html=1;fontSize=11;" parent="1" vertex="1">
          <mxGeometry x="410" y="550" width="110" height="50" as="geometry" />
        </mxCell>
        <mxCell id="RwjBt87DDW_TiBrwf7uw-115" value="productQuantity" style="html=1;fontSize=11;" parent="1" vertex="1">
          <mxGeometry x="520" y="550" width="110" height="50" as="geometry" />
        </mxCell>
        <mxCell id="RwjBt87DDW_TiBrwf7uw-116" value="productPrice" style="html=1;fontSize=11;" parent="1" vertex="1">
          <mxGeometry x="630" y="550" width="110" height="50" as="geometry" />
        </mxCell>
        <mxCell id="RwjBt87DDW_TiBrwf7uw-117" value="productSection" style="html=1;fontSize=11;" parent="1" vertex="1">
          <mxGeometry x="740" y="550" width="110" height="50" as="geometry" />
        </mxCell>
        <mxCell id="RwjBt87DDW_TiBrwf7uw-118" value="productColor" style="html=1;fontSize=11;" parent="1" vertex="1">
          <mxGeometry x="850" y="550" width="110" height="50" as="geometry" />
        </mxCell>
        <mxCell id="RwjBt87DDW_TiBrwf7uw-119" value="productCollection" style="html=1;fontSize=11;" parent="1" vertex="1">
          <mxGeometry x="960" y="550" width="110" height="50" as="geometry" />
        </mxCell>
        <mxCell id="RwjBt87DDW_TiBrwf7uw-120" value="productCategory" style="html=1;fontSize=11;" parent="1" vertex="1">
          <mxGeometry x="1070" y="550" width="110" height="50" as="geometry" />
        </mxCell>
        <mxCell id="RwjBt87DDW_TiBrwf7uw-122" value="&lt;b&gt;Cart&lt;/b&gt;" style="html=1;fontSize=11;fillColor=#d5e8d4;strokeColor=#82b366;" parent="1" vertex="1">
          <mxGeometry x="79" y="1421.35" width="110" height="50" as="geometry" />
        </mxCell>
        <mxCell id="X8R_7NBN2Ok8TuAAetcp-6" style="edgeStyle=orthogonalEdgeStyle;rounded=0;orthogonalLoop=1;jettySize=auto;html=1;exitX=0.5;exitY=1;exitDx=0;exitDy=0;" parent="1" source="RwjBt87DDW_TiBrwf7uw-123" edge="1">
          <mxGeometry relative="1" as="geometry">
            <Array as="points">
              <mxPoint x="244" y="1490" />
              <mxPoint x="20" y="1490" />
              <mxPoint x="20" y="70" />
              <mxPoint x="240" y="70" />
            </Array>
            <mxPoint x="240" y="10" as="targetPoint" />
          </mxGeometry>
        </mxCell>
        <mxCell id="RwjBt87DDW_TiBrwf7uw-123" value="&lt;u&gt;customerID&lt;/u&gt;" style="html=1;fontSize=11;fontStyle=1" parent="1" vertex="1">
          <mxGeometry x="189" y="1421.35" width="110" height="50" as="geometry" />
        </mxCell>
        <mxCell id="X8R_7NBN2Ok8TuAAetcp-5" style="edgeStyle=orthogonalEdgeStyle;rounded=0;orthogonalLoop=1;jettySize=auto;html=1;exitX=0.5;exitY=1;exitDx=0;exitDy=0;" parent="1" edge="1">
          <mxGeometry relative="1" as="geometry">
            <mxPoint x="290" y="601" as="targetPoint" />
            <Array as="points">
              <mxPoint x="354" y="1490" />
              <mxPoint x="820" y="1490" />
              <mxPoint x="820" y="631" />
              <mxPoint x="290" y="631" />
            </Array>
            <mxPoint x="354" y="1472.35" as="sourcePoint" />
          </mxGeometry>
        </mxCell>
        <mxCell id="RwjBt87DDW_TiBrwf7uw-124" value="&lt;u&gt;productID&lt;/u&gt;" style="html=1;fontSize=11;fontStyle=1" parent="1" vertex="1">
          <mxGeometry x="299" y="1421.35" width="110" height="50" as="geometry" />
        </mxCell>
        <mxCell id="X8R_7NBN2Ok8TuAAetcp-2" value="quantity" style="html=1;fontSize=11;" parent="1" vertex="1">
          <mxGeometry x="519" y="750" width="110" height="50" as="geometry" />
        </mxCell>
        <mxCell id="D54AwepfrR_1NZmLBoPf-4" style="edgeStyle=orthogonalEdgeStyle;rounded=0;orthogonalLoop=1;jettySize=auto;html=1;exitX=0.5;exitY=0;exitDx=0;exitDy=0;entryX=0.5;entryY=1;entryDx=0;entryDy=0;" edge="1" parent="1" source="D54AwepfrR_1NZmLBoPf-2" target="RwjBt87DDW_TiBrwf7uw-21">
          <mxGeometry relative="1" as="geometry" />
        </mxCell>
        <mxCell id="D54AwepfrR_1NZmLBoPf-2" value="paymentID" style="html=1;fontSize=11;" vertex="1" parent="1">
          <mxGeometry x="517.5" y="240" width="110" height="50" as="geometry" />
        </mxCell>
        <mxCell id="D54AwepfrR_1NZmLBoPf-7" value="shippingCompany" style="html=1;fontSize=11;" vertex="1" parent="1">
          <mxGeometry x="850.5" y="380" width="110" height="50" as="geometry" />
        </mxCell>
        <mxCell id="D54AwepfrR_1NZmLBoPf-9" value="quantity" style="html=1;fontSize=11;" vertex="1" parent="1">
          <mxGeometry x="407.5" y="1421.35" width="110" height="50" as="geometry" />
        </mxCell>
      </root>
    </mxGraphModel>
  </diagram>
</mxfile>
